<?xml version="1.0" encoding="utf-8"?>
<!-- Generator: Adobe Illustrator 17.0.0, SVG Export Plug-In . SVG Version: 6.00 Build 0)  -->
<!DOCTYPE svg PUBLIC "-//W3C//DTD SVG 1.0//EN" "http://www.w3.org/TR/2001/REC-SVG-20010904/DTD/svg10.dtd">
<svg version="1.0" id="Layer_1" xmlns="http://www.w3.org/2000/svg" xmlns:xlink="http://www.w3.org/1999/xlink" x="0px" y="0px"
	 width="80px" height="62px" viewBox="0 0 80 62" enable-background="new 0 0 80 62" xml:space="preserve">
<g>
	<path d="M76.959,20.475c-0.991-0.482-2.055-0.645-3.158-0.667c-8.477-0.165-16.795,0.91-24.972,3.128
		c-0.297,0.081-0.599,0.152-0.902,0.202c-0.146,0.024-0.302-0.012-0.462-0.021c-0.374-0.578-0.173-1.014,0.361-1.277
		c2.614-1.288,3.961-3.716,5.403-6.034c0.69-1.109,1.565-1.752,2.867-1.799c1.262-0.046,2.26-0.609,3.124-1.507
		c1.045-1.087,1.901-2.317,2.795-3.521c0.393-0.529,0.459-1.091-0.116-1.494c-0.52-0.365-1.098-0.296-1.521,0.228
		c-0.747,0.925-1.464,1.875-2.202,2.808c-0.705,0.891-1.559,1.394-2.762,1.48c-1.557,0.112-2.827,0.856-3.687,2.251
		c-0.786,1.274-1.647,2.504-2.506,3.731c-0.478,0.682-1.049,1.284-2.082,1.614c-0.256-1.911-1.493-3.049-3.428-3.816
		c1.039-0.394,2.05-0.558,2.361-1.526c0.274-0.853,0.196-1.693-0.367-2.502c-0.565-0.814-1.81-0.576-2.244-1.637
		c1.216-1.88,2.502-3.736,4.356-5.134c0.824-0.621,1.613-1.294,2.379-1.987c0.779-0.704,0.918-1.474,0.056-2.244
		c-0.311,0-0.621,0-0.932,0c-0.631,1.038-1.633,1.697-2.573,2.386c-1.513,1.111-2.805,2.435-3.789,3.998
		C42.215,8.312,41.495,8.808,40,8.827c-1.408-0.019-2.215-0.515-2.958-1.693c-0.984-1.562-2.276-2.887-3.789-3.998
		c-0.939-0.69-1.942-1.348-2.573-2.386c-0.311,0-0.621,0-0.932,0c-0.862,0.77-0.723,1.54,0.056,2.244
		c0.766,0.692,1.555,1.365,2.379,1.987c1.854,1.397,3.14,3.254,4.356,5.134c-0.434,1.061-1.679,0.824-2.244,1.637
		c-0.563,0.81-0.641,1.649-0.367,2.502c0.311,0.968,1.322,1.132,2.361,1.526c-1.935,0.768-3.172,1.905-3.428,3.816
		c-1.033-0.33-1.604-0.932-2.082-1.614c-0.859-1.227-1.72-2.457-2.506-3.731c-0.86-1.395-2.13-2.14-3.687-2.251
		c-1.203-0.086-2.057-0.589-2.762-1.48c-0.738-0.933-1.455-1.883-2.202-2.808c-0.422-0.523-1-0.592-1.521-0.228
		c-0.575,0.403-0.509,0.965-0.116,1.494c0.893,1.204,1.75,2.434,2.795,3.521c0.864,0.898,1.862,1.461,3.124,1.507
		c1.302,0.047,2.177,0.689,2.867,1.799c1.443,2.319,2.79,4.746,5.403,6.034c0.534,0.263,0.735,0.699,0.361,1.277
		c-0.161,0.009-0.316,0.045-0.462,0.021c-0.304-0.05-0.605-0.121-0.902-0.202c-8.177-2.218-16.496-3.293-24.972-3.128
		c-1.103,0.021-2.167,0.185-3.158,0.667c-2.409,1.171-3.242,3.918-1.904,6.229c0.155,0.268,0.322,0.53,0.504,0.78
		c4.301,5.919,10.202,8.309,17.382,7.878c0.743-0.045,1.491-0.24,2.412-0.011c-1.882,3.177-4.293,5.321-7.918,5.801
		c-1.25,0.166-2.476-0.088-3.673-0.424c-0.813-0.228-1.541-0.153-1.729,0.735c-0.176,0.83,0.541,1.131,1.228,1.308
		c1.613,0.415,3.232,0.65,4.909,0.376c3.665-0.599,6.529-2.57,8.274-5.699c1.322-2.37,3.175-3.764,5.448-4.935
		c2.044-1.053,4.001-2.276,6.031-3.444c-0.564,2.949-2.136,5.021-4.626,6.48c-2.055,1.204-2.785,3.223-3.013,5.476
		c-0.203,2.007-0.31,4.028-0.624,6.017c-0.485,3.073-1.446,5.936-4.243,7.777c-1.216,0.801-2.5,1.454-3.9,1.86
		c-0.792,0.23-1.597,0.418-2.391,0.642c-0.615,0.174-1.066,0.569-0.87,1.233c0.197,0.666,0.718,0.976,1.462,0.757
		c0.395-0.116,0.81-0.158,1.209-0.26c5.543-1.427,9.428-4.498,10.595-10.422c0.472-2.397,0.54-4.822,0.833-7.23
		c0.144-1.183,0.627-2.171,1.309-3.094c0.212-0.287,0.487-0.551,0.881-0.288c0.172,0.267,0.096,0.533,0.052,0.775
		c-0.649,3.538-0.259,7.03,0.695,10.436c1.276,4.556,4.15,9.521,8.626,12.049c4.476-2.528,7.349-7.493,8.626-12.049
		c0.954-3.405,1.344-6.898,0.695-10.436c-0.044-0.242-0.12-0.508,0.052-0.775c0.394-0.262,0.67,0.002,0.881,0.288
		c0.682,0.923,1.164,1.911,1.309,3.094c0.293,2.407,0.361,4.833,0.833,7.23c1.167,5.924,5.052,8.995,10.595,10.422
		c0.399,0.103,0.815,0.145,1.209,0.26c0.744,0.218,1.265-0.091,1.462-0.757c0.196-0.664-0.255-1.059-0.87-1.233
		c-0.794-0.225-1.598-0.413-2.391-0.642c-1.4-0.406-2.684-1.06-3.9-1.86c-2.796-1.841-3.758-4.704-4.243-7.777
		c-0.314-1.989-0.421-4.011-0.624-6.017c-0.228-2.252-0.958-4.271-3.013-5.476c-2.49-1.459-4.062-3.531-4.626-6.48
		c2.031,1.168,3.987,2.391,6.031,3.444c2.273,1.171,4.125,2.565,5.448,4.935c1.746,3.129,4.609,5.099,8.274,5.699
		c1.677,0.274,3.296,0.04,4.909-0.376c0.687-0.177,1.404-0.478,1.228-1.308c-0.188-0.888-0.916-0.963-1.729-0.735
		c-1.197,0.336-2.423,0.59-3.673,0.424c-3.625-0.48-6.036-2.624-7.918-5.801c0.921-0.23,1.669-0.034,2.412,0.011
		c7.18,0.431,13.081-1.959,17.382-7.878c0.182-0.25,0.349-0.512,0.504-0.78C80.201,24.393,79.368,21.646,76.959,20.475z
		 M23.61,32.44c-2.32,1.046-4.858,0.851-7.331,0.814c-4.403-0.066-8.104-1.811-11.221-4.868c-0.779-0.764-1.428-1.645-1.978-2.571
		c-0.921-1.552-0.138-3.308,1.642-3.704c1.886-0.42,3.813-0.202,5.72-0.174c6.531,0.094,12.921,1.218,19.253,2.73
		c0.799,0.191,1.559,0.526,2.38,0.664c0.807,0.135,0.971,0.812,1.153,1.675C30.016,28.912,26.952,30.933,23.61,32.44z M37.92,11.563
		c0.682-0.516,1.507-0.872,2.08-0.872c0.544,0,1.398,0.356,2.08,0.872c-0.407,1.113-0.335,2.559,0.367,3.764
		C41.553,15.021,40.757,14.73,40,14.73c-0.718,0-1.495,0.214-2.447,0.597C38.255,14.121,38.327,12.675,37.92,11.563z M35.01,19.766
		c0.016-1.032,0.804-1.496,1.594-1.897c1.065-0.541,2.329-0.926,3.397-0.965c1.184,0.019,2.331,0.424,3.397,0.965
		c0.79,0.401,1.578,0.865,1.594,1.897c0.025,1.595,0.361,3.162,0.314,4.767c-0.082,2.789-1.451,4.188-4.224,4.184
		c-0.36-0.001-0.72-0.006-1.08-0.009c-0.36,0.003-0.72,0.008-1.08,0.009c-2.773,0.004-4.142-1.395-4.224-4.184
		C34.649,22.929,34.984,21.361,35.01,19.766z M40,57.911c-1.576-0.029-2.197-1.258-3.123-2.485c1.158,0,2.141,0,3.123,0
		c0.983,0,1.965,0,3.123,0C42.197,56.653,41.576,57.882,40,57.911z M45.586,50.452c-0.286,0.982-0.951,1.336-1.896,1.518
		c-1.205,0.233-2.448,0.349-3.69,0.349c-1.204,0-2.457-0.205-3.69-0.349c-0.956-0.112-1.61-0.536-1.896-1.518
		c-0.228-0.783-0.577-1.531-0.954-2.509c2.327,0.377,4.345,0.565,6.54,0.648c2.151-0.079,4.252-0.291,6.54-0.648
		C46.163,48.92,45.815,49.668,45.586,50.452z M47.814,42.225c0.088,0.806-0.334,1.231-1.093,1.393
		c-2.216,0.474-4.409,0.63-6.721,0.623c-2.232,0.011-4.505-0.15-6.721-0.623c-0.759-0.162-1.181-0.587-1.093-1.393
		c0.098-0.901-0.188-1.856,0.43-2.843c2.406,0.496,4.882,0.796,7.384,0.821c2.501-0.025,4.978-0.324,7.384-0.821
		C48.002,40.37,47.716,41.324,47.814,42.225z M42.143,31.103c1.68,0.016,2.255,0.627,2.9,1.766c0.451,0.797,0.936,1.573,1.102,2.574
		c-2.049,0.554-4.125,0.721-6.145,0.721s-4.096-0.167-6.145-0.721c0.165-1.001,0.651-1.777,1.102-2.574
		c0.645-1.139,1.22-1.751,2.9-1.766 M76.92,25.816c-0.55,0.926-1.199,1.807-1.978,2.571c-3.118,3.057-6.818,4.802-11.221,4.868
		c-2.473,0.037-5.012,0.232-7.331-0.814c-3.341-1.507-6.406-3.528-9.617-5.434c0.182-0.864,0.346-1.54,1.153-1.675
		c0.822-0.138,1.581-0.473,2.38-0.664c6.332-1.512,12.722-2.636,19.253-2.73c1.907-0.028,3.834-0.246,5.72,0.174
		C77.058,22.508,77.841,24.264,76.92,25.816z"/>
	<path d="M43.696,25.9c0.549-1.913,0.365-3.419,0.225-5.367c-0.049-0.682-0.443-1.242-1.418-1.385c0,2.754,0,5.363,0,8.057
		C43.359,27.069,43.53,26.479,43.696,25.9z"/>
	<path d="M40,27.777c0.625-0.206,0.868-0.687,0.899-1.295c0.123-2.382,0.108-4.389-0.054-6.768C40.81,19.199,40.8,18.523,40,18.457
		c-0.8,0.066-0.81,0.742-0.845,1.256c-0.154,2.253-0.17,4.511-0.054,6.768C39.132,27.09,39.375,27.571,40,27.777z"/>
	<path d="M37.497,27.205c0-2.694,0-5.304,0-8.057c-0.974,0.143-1.369,0.703-1.418,1.385c-0.129,1.792-0.283,3.598,0.225,5.367
		C36.47,26.479,36.641,27.069,37.497,27.205z"/>
</g>
</svg>
